<?xml version="1.0" encoding="UTF-8"?>
<svg id="_레이어_1" data-name="레이어 1" xmlns="http://www.w3.org/2000/svg" viewBox="0 0 1288.6 150.93">
  <defs>
    <style>
      .cls-1, .cls-2 {
        fill: #fff;
      }

      .cls-2, .cls-3 {
        fill-rule: evenodd;
      }

      .cls-4, .cls-3 {
        fill: #231815;
      }
    </style>
  </defs>
  <path class="cls-4" d="M241.58,130.29c-7.87,0-14.71-1.35-20.52-4.06-5.81-2.71-10.68-6.37-14.61-11s-6.86-10.09-8.78-16.38c-1.92-6.3-2.88-13.04-2.88-20.22,0-9.05,1.28-16.97,3.84-23.76,2.56-6.79,6.05-12.45,10.48-16.97,4.43-4.53,9.67-7.92,15.72-10.18,6.05-2.26,12.62-3.39,19.7-3.39,3.94,0,7.72.32,11.36.96,3.64.64,6.89,1.45,9.74,2.44,3.25,1.08,5.88,2.19,7.9,3.32,2.02,1.13,3.76,2.24,5.24,3.32v21.7c-.39.2-.93.34-1.62.44-.69.1-1.4.17-2.14.22-.74.05-1.43.05-2.07,0-.64-.05-1.11-.12-1.4-.22-.69-3.35-1.57-6.45-2.66-9.3-1.08-2.85-2.56-5.12-4.43-6.79-2.46-2.16-5.41-3.76-8.86-4.8-3.44-1.03-7.23-1.55-11.37-1.55-4.92,0-9.52.91-13.8,2.73-4.28,1.82-8.02,4.58-11.22,8.27-3.2,3.69-5.73,8.27-7.6,13.73-1.87,5.46-2.8,11.78-2.8,18.97,0,6.69.89,12.69,2.66,18.01,1.77,5.31,4.21,9.82,7.31,13.51,3.1,3.69,6.74,6.49,10.92,8.41,4.18,1.92,8.73,2.88,13.65,2.88,4.03,0,7.55-.34,10.55-1.03,3-.69,5.78-1.67,8.34-2.95.98-.49,1.6-1.13,1.84-1.92.25-.79.37-2.16.37-4.13v-21.4c-2.75-.49-5.14-1.03-7.16-1.62-2.02-.59-3.03-.98-3.03-1.18,0-.69.05-1.82.15-3.39.1-1.57.34-2.76.74-3.54h32.18c.1.39.2.93.3,1.62.1.69.15,1.4.15,2.14s-.02,1.43-.07,2.07c-.05.64-.17,1.06-.37,1.25-.1.2-.42.39-.96.59-.54.2-1.13.39-1.77.59-.64.2-1.3.39-1.99.59-.69.2-1.28.34-1.77.44-.79.2-1.4.42-1.85.66-.44.25-.71.62-.81,1.11-.2,1.97-.3,4.21-.3,6.72v25.02c-5.41,2.76-11.19,4.8-17.34,6.13-6.15,1.33-12.47,1.99-18.97,1.99h0ZM396.1,120.11c.49.1.74.34.74.74v6.64h-10.77c-1.77,0-3.49-.22-5.17-.66-1.67-.44-3.2-1.21-4.58-2.29-1.18-.89-2.34-2.02-3.47-3.39-1.13-1.38-2.19-2.8-3.17-4.28-.98-1.48-1.89-2.93-2.73-4.35-.84-1.43-1.55-2.68-2.14-3.76l-12.84-25.24c-2.26.3-4.35.49-6.27.59-1.92.1-3.96.15-6.13.15h-8.71v33.8c1.38.2,2.76.44,4.13.74,1.38.3,2.61.57,3.69.81,1.08.25,1.97.49,2.66.74.69.25,1.03.42,1.03.52,0,.69-.05,1.77-.15,3.25-.1,1.48-.34,2.61-.74,3.39h-33.65c-.3-.79-.47-2.02-.52-3.69-.05-1.67.12-2.76.52-3.25.1-.1.42-.27.96-.52.54-.25,1.16-.47,1.85-.66.69-.2,1.38-.39,2.07-.59.69-.2,1.28-.34,1.77-.44.79-.2,1.4-.42,1.84-.66.44-.25.71-.61.81-1.11.1-.69.17-1.67.22-2.95.05-1.28.07-2.63.07-4.06V36.56c-2.56-.49-4.87-1.01-6.94-1.55-2.07-.54-3.1-.91-3.1-1.11,0-.69.05-1.8.15-3.32.1-1.53.34-2.68.74-3.47h30.55c6.1,0,11.64.2,16.6.59,4.97.39,9.82,1.72,14.54,3.99,4.33,2.16,7.7,4.94,10.11,8.34,2.41,3.39,3.62,7.9,3.62,13.51,0,6.89-1.7,12.5-5.09,16.83-3.39,4.33-8.24,7.72-14.54,10.18v.59l15.65,26.72c2.07,3.54,4.43,6.27,7.08,8.19,2.66,1.92,5.76,3.27,9.3,4.06h0ZM341.34,75.68c4.13,0,7.87-.27,11.22-.81,3.35-.54,6.4-1.65,9.15-3.32,1.97-1.28,3.84-3.07,5.61-5.39,1.77-2.31,2.66-5.78,2.66-10.41,0-3.94-.71-7.08-2.14-9.45-1.43-2.36-2.98-4.18-4.65-5.46-1.28-.89-2.76-1.62-4.43-2.21-1.67-.59-3.44-1.03-5.31-1.33-1.87-.3-3.81-.49-5.83-.59-2.02-.1-3.96-.15-5.83-.15h-10.92v39.11h10.48ZM509.73,120.11c.2.3.32.76.37,1.4.05.64.07,1.35.07,2.14s-.05,1.53-.15,2.21c-.1.69-.2,1.23-.3,1.62h-32.77c-.39-.79-.64-1.94-.74-3.47-.1-1.53-.15-2.68-.15-3.47,0-.1.32-.25.96-.44.64-.2,1.48-.39,2.51-.59,1.03-.2,2.14-.42,3.32-.66,1.18-.25,2.36-.47,3.54-.66l-7.97-22.14h-39.26l-7.82,22.29c1.18.2,2.36.39,3.54.59,1.18.2,2.24.39,3.17.59.93.2,1.72.42,2.36.66.64.25.96.42.96.52,0,.59-.07,1.67-.22,3.25-.15,1.57-.42,2.75-.81,3.54h-29.52c-.2-.3-.34-.81-.44-1.55-.1-.74-.15-1.5-.15-2.29s.07-1.5.22-2.14c.15-.64.32-1.11.52-1.4.39-.3,1.21-.64,2.44-1.03,1.23-.39,2.29-.69,3.17-.89.89-.3,1.62-.84,2.21-1.62.39-.89.89-2.04,1.48-3.47.59-1.43,1.23-2.98,1.92-4.65.69-1.67,1.38-3.35,2.07-5.02.69-1.67,1.28-3.2,1.77-4.58l26.72-71.44c1.38-.2,2.9-.62,4.58-1.25,1.67-.64,3.05-1.21,4.13-1.7.59-.2,1.33-.29,2.21-.29s1.57.1,2.07.29l28.19,74.24c.49,1.38,1.11,2.93,1.84,4.65.74,1.72,1.45,3.44,2.14,5.17.69,1.72,1.3,3.25,1.84,4.58s.96,2.29,1.25,2.88c.69,1.18,1.67,1.92,2.95,2.21.79.2,1.82.47,3.1.81,1.28.34,2.17.71,2.66,1.11h0ZM475.19,87.34l-7.82-21.4-8.27-24.21h-1.48l-7.97,24.21-7.53,21.4h33.06ZM656.27,34.06c0,.1-.42.27-1.25.52-.84.25-1.89.49-3.17.74s-2.63.52-4.06.81c-1.43.3-2.73.54-3.91.74l-1.62,2.51c.2,4.43.32,9.35.37,14.76.05,5.41.07,10.53.07,15.35v35.28c0,1.18.02,2.48.07,3.91.05,1.43.1,2.83.15,4.21.05,1.38.12,2.56.22,3.54.1.49.37.86.81,1.11.44.25,1.06.47,1.84.66.39.1.96.25,1.7.44.74.2,1.43.39,2.07.59.64.2,1.23.42,1.77.66.54.25.86.42.96.52.2.2.32.62.37,1.25.05.64.07,1.33.07,2.07s-.05,1.45-.15,2.14-.2,1.23-.3,1.62h-32.03c-.39-.79-.64-1.94-.74-3.47-.1-1.53-.15-2.63-.15-3.32,0-.2,1.08-.57,3.25-1.11,2.16-.54,4.53-1.06,7.08-1.55v-46.05c0-3.64.02-7.5.07-11.59.05-4.08.17-8.19.37-12.32l-36.31,79.41h-9l-35.72-76.31c.1,3.94.17,7.8.22,11.59.05,3.79.07,7.26.07,10.41v44.87c2.66.49,5.02,1.01,7.08,1.55,2.07.54,3.1.91,3.1,1.11,0,.69-.05,1.8-.15,3.32-.1,1.53-.34,2.68-.74,3.47h-29.22c-.2-.39-.32-.93-.37-1.62-.05-.69-.07-1.4-.07-2.14s.02-1.4.07-1.99c.05-.59.17-.98.37-1.18.1-.1.42-.27.96-.52.54-.25,1.13-.47,1.77-.66.64-.2,1.3-.39,1.99-.59.69-.2,1.28-.34,1.77-.44.79-.2,1.4-.42,1.85-.66.44-.25.71-.61.81-1.11.1-.98.17-2.16.22-3.54.05-1.38.1-2.76.15-4.13.05-1.38.07-2.68.07-3.91v-31.81c0-2.36.02-5.04.07-8.04.05-3,.1-6.1.15-9.3.05-3.2.12-6.27.22-9.22.1-2.95.2-5.56.29-7.82l-1.03-1.62-12.84-2.51c-.2-.3-.32-.79-.37-1.48-.05-.69-.07-1.4-.07-2.14s.05-1.48.15-2.21c.1-.74.25-1.3.44-1.7h26.57l38.23,81.47,37.64-81.47h26.86c.39.79.64,1.94.74,3.47.1,1.53.15,2.68.15,3.47h0ZM675.73,127.49c-.2-.39-.32-.93-.37-1.62-.05-.69-.07-1.4-.07-2.14s.02-1.4.07-1.99c.05-.59.17-.98.37-1.18.1-.1.42-.27.96-.52.54-.25,1.18-.47,1.92-.66.74-.2,1.45-.39,2.14-.59.69-.2,1.28-.34,1.77-.44.79-.2,1.4-.42,1.84-.66.44-.25.71-.61.81-1.11.1-.98.17-2.16.22-3.54.05-1.38.07-2.76.07-4.13V36.56c-2.56-.49-4.9-1.01-7.01-1.55-2.12-.54-3.17-.91-3.17-1.11,0-.69.05-1.8.15-3.32.1-1.53.34-2.68.74-3.47h32.47c.1.39.2.94.3,1.62.1.69.15,1.38.15,2.07s-.02,1.33-.07,1.92c-.05.59-.17.98-.37,1.18-.1.2-.42.39-.96.59-.54.2-1.16.39-1.84.59-.69.2-1.4.39-2.14.59-.74.2-1.35.34-1.84.44-.79.2-1.4.42-1.84.66-.44.25-.71.61-.81,1.11-.1.98-.17,2.16-.22,3.54-.05,1.38-.07,2.76-.07,4.13v72.47c2.56.49,4.9,1.01,7.01,1.55,2.12.54,3.17.91,3.17,1.11,0,.69-.05,1.8-.15,3.32-.1,1.53-.34,2.68-.74,3.47h-32.47ZM863.16,118.04c2.66.49,5.02,1.01,7.08,1.55,2.07.54,3.1.91,3.1,1.11,0,.69-.05,1.8-.15,3.32-.1,1.53-.34,2.68-.74,3.47h-32.18c-.2-.39-.32-.93-.37-1.62-.05-.69-.07-1.4-.07-2.14s.02-1.4.07-1.99c.05-.59.17-.98.37-1.18.1-.1.42-.27.96-.52.54-.25,1.13-.47,1.77-.66.64-.2,1.3-.39,1.99-.59.69-.2,1.28-.34,1.77-.44.79-.2,1.4-.42,1.85-.66.44-.25.71-.61.81-1.11.1-.98.17-2.16.22-3.54.05-1.38.1-2.76.15-4.13.05-1.38.07-2.66.07-3.84v-24.21h-51.22v37.2c2.56.49,4.87,1.01,6.94,1.55,2.07.54,3.1.91,3.1,1.11,0,.69-.05,1.8-.15,3.32-.1,1.53-.34,2.68-.74,3.47h-32.18c-.2-.39-.32-.93-.37-1.62-.05-.69-.07-1.4-.07-2.14s.02-1.4.07-1.99c.05-.59.17-.98.37-1.18.1-.1.42-.27.96-.52.54-.25,1.16-.47,1.84-.66.69-.2,1.38-.39,2.07-.59.69-.2,1.28-.34,1.77-.44.79-.2,1.4-.42,1.84-.66.44-.25.71-.61.81-1.11.1-.98.17-2.16.22-3.54.05-1.38.07-2.76.07-4.13V36.56c-2.56-.49-4.87-1.01-6.94-1.55-2.07-.54-3.1-.91-3.1-1.11,0-.69.05-1.8.15-3.32.1-1.53.34-2.68.74-3.47h32.18c.1.39.2.94.3,1.62.1.69.15,1.38.15,2.07s-.02,1.33-.07,1.92c-.05.59-.17.98-.37,1.18-.1.2-.42.39-.96.59-.54.2-1.16.39-1.84.59-.69.2-1.38.39-2.07.59s-1.28.34-1.77.44c-.79.2-1.4.42-1.85.66s-.71.61-.81,1.11c-.1.98-.17,2.16-.22,3.54-.05,1.38-.07,2.76-.07,4.13v26.27h51.22v-35.28c-2.66-.49-5.02-1.01-7.08-1.55-2.07-.54-3.1-.91-3.1-1.11,0-.69.05-1.8.15-3.32.1-1.53.34-2.68.74-3.47h32.18c.1.39.2.94.3,1.62.1.69.15,1.38.15,2.07s-.02,1.33-.07,1.92c-.05.59-.17.98-.37,1.18-.1.2-.42.39-.96.59-.54.2-1.13.39-1.77.59-.64.2-1.3.39-1.99.59s-1.28.34-1.77.44c-.79.2-1.4.42-1.84.66-.44.25-.71.61-.81,1.11-.1.98-.17,2.16-.22,3.54-.05,1.38-.1,2.76-.15,4.13-.05,1.38-.07,2.66-.07,3.84v68.63h0ZM942.25,130.29c-7.68,0-14.49-1.25-20.44-3.76-5.95-2.51-10.92-6.1-14.91-10.77-3.99-4.67-7.01-10.28-9.08-16.83-2.07-6.54-3.1-13.8-3.1-21.77s1.03-15.23,3.1-21.77c2.07-6.54,5.09-12.1,9.08-16.68,3.99-4.58,8.95-8.12,14.91-10.63,5.95-2.51,12.77-3.76,20.44-3.76s14.44,1.25,20.29,3.76c5.85,2.51,10.77,6.05,14.76,10.63,3.99,4.58,7.01,10.14,9.08,16.68,2.07,6.54,3.1,13.8,3.1,21.77s-1.03,15.23-3.1,21.77c-2.07,6.54-5.09,12.15-9.08,16.83-3.99,4.67-8.91,8.27-14.76,10.77-5.85,2.51-12.62,3.76-20.29,3.76h0ZM942.1,119.96c10.73,0,18.97-3.79,24.72-11.37,5.76-7.58,8.63-18.06,8.63-31.44s-2.88-23.94-8.63-31.36c-5.76-7.43-14-11.14-24.72-11.14s-19.09,3.71-24.8,11.14c-5.71,7.43-8.56,17.88-8.56,31.36s2.85,23.86,8.56,31.44c5.71,7.58,13.97,11.37,24.8,11.37h0ZM1010.42,26.38c2.46.49,5.02.74,7.68.74h69.37c2.66,0,5.22-.25,7.68-.74l1.48,24.06c-.79.39-1.87.76-3.25,1.11-1.38.34-2.56.52-3.54.52-.2,0-.52-.59-.96-1.77-.44-1.18-.93-2.58-1.48-4.21-.54-1.62-1.11-3.35-1.7-5.17-.59-1.82-1.08-3.32-1.48-4.5h-11.22l-13.58-.59v82.21c1.28.2,2.58.44,3.91.74,1.33.3,2.53.57,3.62.81,1.08.25,1.99.47,2.73.66.74.2,1.11.34,1.11.44,0,.69-.05,1.8-.15,3.32-.1,1.53-.34,2.68-.74,3.47h-34.83c-.2-.39-.32-.93-.37-1.62-.05-.69-.07-1.4-.07-2.14s.02-1.4.07-1.99c.05-.59.17-.98.37-1.18.1-.1.49-.27,1.18-.52.69-.25,1.45-.47,2.29-.66.84-.2,1.67-.39,2.51-.59.84-.2,1.5-.34,1.99-.44,1.67-.3,2.56-.89,2.66-1.77.1-.98.17-2.16.22-3.54.05-1.38.1-2.76.15-4.13.05-1.38.07-2.66.07-3.84V35.83l-13.58.59h-11.22c-.39,1.18-.89,2.68-1.48,4.5-.59,1.82-1.16,3.54-1.7,5.17-.54,1.62-1.06,3.03-1.55,4.21-.49,1.18-.79,1.77-.89,1.77-.98,0-2.16-.17-3.54-.52-1.38-.34-2.46-.71-3.25-1.11l1.48-24.06h0ZM1179.84,118.19c1.28-4.53,2.46-8.27,3.54-11.22,1.08-2.95,1.82-4.43,2.21-4.43.98,0,2.09.17,3.32.52,1.23.34,2.19.71,2.88,1.11l-1.33,24.5c-1.48,0-3.17-.1-5.09-.3-1.92-.2-3.57-.49-4.94-.89h-64.94c-.2-.39-.32-.93-.37-1.62-.05-.69-.07-1.4-.07-2.14s.02-1.4.07-1.99c.05-.59.17-.98.37-1.18.1-.1.42-.27.96-.52.54-.25,1.16-.47,1.85-.66.69-.2,1.38-.39,2.07-.59.69-.2,1.28-.34,1.77-.44.79-.2,1.4-.42,1.84-.66.44-.25.71-.61.81-1.11.1-.98.17-2.16.22-3.54.05-1.38.07-2.76.07-4.13V36.56c-2.56-.49-4.87-1.01-6.94-1.55-2.07-.54-3.1-.91-3.1-1.11,0-.69.05-1.8.15-3.32.1-1.53.34-2.68.74-3.47h67.01c1.28,0,2.61-.07,3.99-.22,1.38-.15,2.61-.32,3.69-.52l1.18,22.44c-.69.39-1.75.76-3.17,1.11-1.43.34-2.58.52-3.47.52-.2,0-.49-.49-.89-1.48-.39-.98-.86-2.21-1.4-3.69-.54-1.48-1.08-3.03-1.62-4.65-.54-1.62-1.01-3.03-1.4-4.21h-27.31l-14.02-.59v35.87h31.88c.49-2.56,1.01-4.85,1.55-6.86.54-2.02.91-3.03,1.11-3.03.69,0,1.82.05,3.39.15,1.57.1,2.76.34,3.54.74v27.16c-.39.2-.96.32-1.7.37-.74.05-1.48.07-2.21.07s-1.43-.02-2.07-.07c-.64-.05-1.06-.17-1.25-.37-.2-.1-.39-.39-.59-.89-.2-.49-.39-1.06-.59-1.7-.2-.64-.39-1.3-.59-1.99-.2-.69-.34-1.28-.44-1.77-.3-1.77-.89-2.71-1.77-2.8-.98-.1-2.12-.17-3.39-.22-1.28-.05-2.53-.07-3.76-.07h-23.1v38.23l14.02-.44h27.31ZM1212.29,127.49c-.2-.39-.32-.93-.37-1.62-.05-.69-.07-1.4-.07-2.14s.02-1.4.07-1.99c.05-.59.17-.98.37-1.18.1-.1.42-.27.96-.52.54-.25,1.16-.47,1.85-.66.69-.2,1.38-.39,2.07-.59.69-.2,1.28-.34,1.77-.44.79-.2,1.4-.42,1.84-.66.44-.25.71-.61.81-1.11.1-.98.17-2.16.22-3.54.05-1.38.07-2.76.07-4.13V36.56c-2.56-.49-4.87-1.01-6.94-1.55-2.07-.54-3.1-.91-3.1-1.11,0-.69.05-1.8.15-3.32.1-1.53.34-2.68.74-3.47h32.18c.1.39.2.94.3,1.62.1.69.15,1.38.15,2.07s-.02,1.33-.07,1.92c-.05.59-.17.98-.37,1.18-.1.2-.42.39-.96.59-.54.2-1.16.39-1.84.59-.69.2-1.38.39-2.07.59-.69.2-1.28.34-1.77.44-.79.2-1.4.42-1.85.66-.44.25-.71.61-.81,1.11-.1.98-.17,2.16-.22,3.54-.05,1.38-.07,2.76-.07,4.13v73.06l14.02-.44h27.31c.3-1.18.74-2.71,1.33-4.58.59-1.87,1.18-3.69,1.77-5.46.59-1.77,1.13-3.27,1.62-4.5.49-1.23.84-1.85,1.03-1.85.98,0,2.07.17,3.25.52,1.18.34,2.16.71,2.95,1.11l-1.33,25.24c-1.48,0-3.17-.1-5.09-.3-1.92-.2-3.57-.49-4.94-.89h-64.94Z"/>
  <path class="cls-3" d="M75.46,0c41.67,0,75.46,33.79,75.46,75.47s-33.79,75.47-75.46,75.47S0,117.14,0,75.47,33.79,0,75.46,0h0Z"/>
  <path class="cls-2" d="M75.46,9.22c17.63,0,34.38,6.94,46.84,19.41,12.46,12.46,19.4,29.21,19.4,46.84s-6.94,34.38-19.4,46.84c-12.46,12.46-29.21,19.41-46.84,19.41s-34.38-6.94-46.84-19.41c-12.46-12.46-19.4-29.21-19.4-46.84s6.94-34.38,19.4-46.84c12.46-12.46,29.21-19.41,46.84-19.41h0ZM121.77,29.16c-12.32-12.32-28.88-19.18-46.3-19.18s-33.98,6.86-46.3,19.18c-12.32,12.32-19.18,28.88-19.18,46.31s6.86,33.99,19.18,46.31c12.32,12.32,28.88,19.18,46.3,19.18s33.98-6.86,46.3-19.18c12.32-12.32,19.18-28.88,19.18-46.31s-6.86-33.99-19.18-46.31h0Z"/>
  <path class="cls-2" d="M75.46,11.77c16.95,0,33.05,6.67,45.04,18.66,11.98,11.98,18.66,28.09,18.66,45.04s-6.67,33.05-18.66,45.04c-11.98,11.98-28.09,18.66-45.04,18.66s-33.05-6.67-45.04-18.66c-11.98-11.98-18.66-28.09-18.66-45.04s6.67-33.05,18.66-45.04c11.98-11.98,28.09-18.66,45.04-18.66h0ZM119.97,30.96c-11.84-11.84-27.76-18.44-44.5-18.44s-32.66,6.6-44.5,18.44c-11.84,11.84-18.44,27.76-18.44,44.5s6.6,32.66,18.44,44.5c11.84,11.84,27.76,18.44,44.5,18.44s32.66-6.6,44.5-18.44c11.84-11.84,18.44-27.76,18.44-44.5s-6.6-32.66-18.44-44.5h0Z"/>
  <path class="cls-2" d="M75.46,3.13C35.52,3.13,3.13,35.52,3.13,75.47s32.39,72.33,72.33,72.33,72.33-32.39,72.33-72.33S115.4,3.13,75.46,3.13h0ZM75.46,5.86c38.43,0,69.6,31.17,69.6,69.6s-31.17,69.6-69.6,69.6S5.86,113.9,5.86,75.47,37.03,5.86,75.46,5.86h0Z"/>
  <path class="cls-1" d="M70.69,117.5c-11.83-.06-21.98-4-29.34-11.41-7.41-7.45-11.32-17.74-11.32-29.76s3.91-22.37,11.31-29.83c7.36-7.42,17.5-11.34,29.31-11.34,10.56,0,19.24,2.42,27.31,7.62l.32.2,2.42,16.97h-2.51l-.16-.61c-3.29-12.38-13-19.2-27.35-19.2-18.36,0-30.7,14.55-30.7,36.2s12.34,36.1,30.7,36.2c8.95,0,17.74-3.33,24.18-9.15v-19.27c0-3.68-3.05-4.23-4.88-4.23h-2.57v-2.76h23.36v2.76h-2.49c-1.65,0-2.93.43-3.72,1.22-.68.7-1.02,1.69-1,2.95v18.62l-.17.22c-3.3,4.39-13.11,14.61-32.71,14.61h0ZM70.65,36.81h0c-23.31,0-38.98,15.88-38.98,39.52s15.68,39.41,39.01,39.52c18.54,0,27.91-9.43,31.22-13.73v-18.05c-.03-1.68.48-3.11,1.47-4.12.49-.5,1.09-.89,1.8-1.18h-12.05c2.17.87,3.39,2.73,3.39,5.34v20l-.27.25c-6.76,6.25-16.08,9.83-25.57,9.83-19.35-.1-32.35-15.31-32.35-37.85s13-37.85,32.35-37.85c13.41,0,23.28,5.99,27.66,16.6l-1.59-11.12c-4.93-3.13-12.94-7.15-26.1-7.15h0Z"/>
  <path class="cls-1" d="M78.39,117.5c-11.83-.06-21.98-4-29.34-11.41-7.41-7.45-11.32-17.74-11.32-29.76s3.91-22.37,11.31-29.83c7.36-7.42,17.5-11.34,29.31-11.34,10.56,0,19.24,2.42,27.31,7.62l.32.2,2.42,16.97h-2.51l-.16-.61c-3.29-12.38-13-19.2-27.35-19.2-18.36,0-30.7,14.55-30.7,36.2s12.34,36.1,30.7,36.2c8.95,0,17.74-3.33,24.18-9.15v-19.27c0-3.68-3.05-4.23-4.88-4.23h-2.57v-2.76h23.36v2.76h-2.49c-1.65,0-2.93.43-3.72,1.22-.68.7-1.02,1.69-1,2.95v18.62l-.17.22c-3.3,4.39-13.11,14.61-32.71,14.61h0ZM78.35,36.81h0c-23.31,0-38.98,15.88-38.98,39.52s15.68,39.41,39.01,39.52c18.54,0,27.91-9.43,31.22-13.73v-18.05c-.03-1.68.48-3.11,1.47-4.12.49-.5,1.09-.89,1.8-1.18h-12.05c2.17.87,3.39,2.73,3.39,5.34v20l-.26.25c-6.76,6.25-16.08,9.83-25.57,9.83-19.35-.1-32.35-15.31-32.35-37.85s13-37.85,32.35-37.85c13.41,0,23.28,5.99,27.66,16.6l-1.59-11.12c-4.93-3.13-12.94-7.15-26.1-7.15h0Z"/>
</svg>